# xmcd
#
# Track frame offsets: 
#        150
#        11632
#        28250
#        47550
#        64672
#        81107
#        96922
#        115460
#        132395
#        149495
#
# Disc length: 2200 seconds
#
# Revision: 2
# Processed by: cddbd v1.5.2PL0 Copyright (c) Steve Scherf et al.
# Submitted via: ExactAudioCopyFreeDBPlugin 1.0
#
DISCID=8d08960a
DTITLE=Various Artist - Collectables Presents A Rhythm and Blues Christ
DTITLE=mas, Volume 2)
DYEAR=1994
DGENRE=Holiday
TTITLE0=The Clovers - Run Rudolph, Run
TTITLE1=The Rainbows - Let it Snow
TTITLE2=The Jewels - Christmas Song
TTITLE3=The Orioles - What Are You Doing New Year's Eve?
TTITLE4=The Velons - Let's Make Christmas New This Year
TTITLE5=The Jewels - Who's it Gonna Be on New Year's Eve?
TTITLE6=The Rainbows - A Christmas Wish
TTITLE7=The Velons - Holiday Greetings
TTITLE8=The Clovers - The Magic of Christmas Eve
TTITLE9=The Orioles - Lonely Christmas
EXTD=
EXTT0=
EXTT1=
EXTT2=
EXTT3=
EXTT4=
EXTT5=
EXTT6=
EXTT7=
EXTT8=
EXTT9=
PLAYORDER=
